<?xml version="1.0" encoding="iso-8859-1"?>
<!-- Generator: Adobe Illustrator 19.0.0, SVG Export Plug-In . SVG Version: 6.00 Build 0)  -->
<svg version="1.1" id="Layer_1" xmlns="http://www.w3.org/2000/svg" xmlns:xlink="http://www.w3.org/1999/xlink" x="0px" y="0px"
	 viewBox="0 0 512 512" style="enable-background:new 0 0 512 512;" xml:space="preserve">
<g>
	<g>
		<g>
			<path d="M445.583,245.125l-95.688-63.792c-20.917-13.958-49.542-13.958-70.458,0l-2.104,1.406V42.667
				C277.333,19.135,258.188,0,234.667,0C211.146,0,192,19.135,192,42.667v285.479c0,5.375-3.542,8.135-5.063,9.073
				c-1.521,0.948-5.563,2.854-10.375,0.469l-68.5-34.25c-6.25-3.125-13.229-4.771-20.208-4.771
				c-24.917,0-45.188,20.271-45.188,45.188V352c0,2.958,1.229,5.781,3.396,7.802l123.125,114.896
				C194.938,498.75,228.521,512,263.792,512h98.875c58.813,0,106.667-47.854,106.667-106.667V289.5
				C469.333,271.625,460.458,255.042,445.583,245.125z M448,405.333c0,47.052-38.271,85.333-85.333,85.333h-98.875
				c-29.833,0-58.271-11.208-80.063-31.563L64,347.365v-3.51C64,330.698,74.708,320,87.854,320c3.688,0,7.375,0.875,10.667,2.521
				l68.5,34.25c10.042,5.031,21.646,4.469,31.146-1.396c9.5-5.875,15.167-16.052,15.167-27.229V42.667
				c0-11.76,9.563-21.333,21.333-21.333c11.771,0,21.333,9.573,21.333,21.333v160c0,3.938,2.167,7.552,5.625,9.406
				c3.479,1.865,7.667,1.635,10.958-0.531l18.688-12.458c13.917-9.271,32.875-9.271,46.792,0l95.688,63.792
				c8.917,5.948,14.25,15.906,14.25,26.625V405.333z"/>
			<path d="M88.458,252.875C90.542,254.958,93.271,256,96,256s5.458-1.042,7.542-3.125l42.667-42.667
				c4.167-4.167,4.167-10.917,0-15.083c-4.167-4.167-10.917-4.167-15.083,0l-24.458,24.458V53.333
				c0-5.896-4.771-10.667-10.667-10.667s-10.667,4.771-10.667,10.667v166.25l-24.458-24.458c-4.167-4.167-10.917-4.167-15.083,0
				c-4.167,4.167-4.167,10.917,0,15.083L88.458,252.875z"/>
		</g>
	</g>
</g>
<g>
</g>
<g>
</g>
<g>
</g>
<g>
</g>
<g>
</g>
<g>
</g>
<g>
</g>
<g>
</g>
<g>
</g>
<g>
</g>
<g>
</g>
<g>
</g>
<g>
</g>
<g>
</g>
<g>
</g>
</svg>
