<?xml version="1.0" encoding="iso-8859-1"?>
<!-- Generator: Adobe Illustrator 19.0.0, SVG Export Plug-In . SVG Version: 6.00 Build 0)  -->
<svg version="1.1" id="Layer_1" xmlns="http://www.w3.org/2000/svg" xmlns:xlink="http://www.w3.org/1999/xlink" x="0px" y="0px"
	 viewBox="0 0 472 472" style="enable-background:new 0 0 472 472;" xml:space="preserve">
<rect x="64" y="40" style="fill:#66CEDB;" width="368" height="352"/>
<rect x="24" y="80" style="fill:#CE9232;" width="368" height="352"/>
<g>
	<rect x="72" style="fill:#F6BF58;" width="16" height="16"/>
	<rect x="104" style="fill:#F6BF58;" width="16" height="16"/>
	<rect x="136" style="fill:#F6BF58;" width="16" height="16"/>
	<rect x="168" style="fill:#F6BF58;" width="16" height="16"/>
	<rect x="200" style="fill:#F6BF58;" width="16" height="16"/>
	<rect x="232" style="fill:#F6BF58;" width="16" height="16"/>
	<rect x="264" style="fill:#F6BF58;" width="16" height="16"/>
	<rect x="296" style="fill:#F6BF58;" width="16" height="16"/>
	<rect x="328" style="fill:#F6BF58;" width="16" height="16"/>
	<rect x="360" style="fill:#F6BF58;" width="16" height="16"/>
	<rect x="392" style="fill:#F6BF58;" width="16" height="16"/>
	<rect x="424" style="fill:#F6BF58;" width="16" height="16"/>
	<rect x="456" style="fill:#F6BF58;" width="16" height="16"/>
	<rect x="456" y="32" style="fill:#F6BF58;" width="16" height="16"/>
	<rect x="456" y="64" style="fill:#F6BF58;" width="16" height="16"/>
	<rect x="456" y="96" style="fill:#F6BF58;" width="16" height="16"/>
	<rect x="456" y="128" style="fill:#F6BF58;" width="16" height="16"/>
	<rect x="456" y="160" style="fill:#F6BF58;" width="16" height="16"/>
	<rect x="456" y="192" style="fill:#F6BF58;" width="16" height="112"/>
	<rect x="456" y="320" style="fill:#F6BF58;" width="16" height="16"/>
	<rect x="456" y="352" style="fill:#F6BF58;" width="16" height="16"/>
</g>
<path style="fill:#66CEDB;" d="M0,472h320c17.672,0,32-14.328,32-32V184H0V472z"/>
<rect y="120" style="fill:#00BFC8;" width="352" height="64"/>
<g>
	<rect x="24" y="144" style="fill:#FFFFFF;" width="16" height="16"/>
	<rect x="56" y="144" style="fill:#FFFFFF;" width="16" height="16"/>
	<rect x="88" y="144" style="fill:#FFFFFF;" width="16" height="16"/>
</g>
<circle style="fill:#E74C3C;" cx="112" cy="328" r="80"/>
<polygon style="fill:#FFFFFF;" points="88,360 88,296 152,328 "/>
<g>
	<rect x="216" y="240" style="fill:#34495E;" width="104" height="16"/>
	<rect x="216" y="272" style="fill:#34495E;" width="104" height="16"/>
	<rect x="216" y="304" style="fill:#34495E;" width="104" height="16"/>
	<rect x="216" y="336" style="fill:#34495E;" width="104" height="16"/>
	<rect x="216" y="368" style="fill:#34495E;" width="104" height="16"/>
	<rect x="216" y="400" style="fill:#34495E;" width="104" height="16"/>
</g>
<g>
</g>
<g>
</g>
<g>
</g>
<g>
</g>
<g>
</g>
<g>
</g>
<g>
</g>
<g>
</g>
<g>
</g>
<g>
</g>
<g>
</g>
<g>
</g>
<g>
</g>
<g>
</g>
<g>
</g>
</svg>
