<?xml version="1.0" encoding="iso-8859-1"?>
<!-- Generator: Adobe Illustrator 19.0.0, SVG Export Plug-In . SVG Version: 6.00 Build 0)  -->
<svg version="1.1" id="Layer_1" xmlns="http://www.w3.org/2000/svg" xmlns:xlink="http://www.w3.org/1999/xlink" x="0px" y="0px"
	 viewBox="0 0 512 512" style="enable-background:new 0 0 512 512;" xml:space="preserve">
<g>
	<path style="fill:#415A6B;" d="M341.333,457.6H64c-5.333,0-9.6-4.267-9.6-9.6V170.667c0-5.333,4.267-9.6,9.6-9.6h277.333
		c5.333,0,9.6,4.267,9.6,9.6V448C350.933,453.333,346.667,457.6,341.333,457.6z M74.667,437.333h257.067V180.267H74.667V437.333z"/>
	<path style="fill:#415A6B;" d="M448,350.933H170.667c-5.333,0-9.6-4.267-9.6-9.6V64c0-5.333,4.267-9.6,9.6-9.6H448
		c5.333,0,9.6,4.267,9.6,9.6v277.333C457.6,346.667,453.333,350.933,448,350.933z M180.267,331.733h257.067V74.667H180.267V331.733z
		"/>
</g>
<circle style="fill:#F3705A;" cx="448" cy="341.333" r="64"/>
<ellipse transform="matrix(-0.7071 -0.7071 0.7071 -0.7071 496.096 831.879)" style="fill:#FFFFFF;" cx="420.336" cy="313.195" rx="9.6" ry="17.066"/>
<circle style="fill:#F3705A;" cx="448" cy="64" r="64"/>
<ellipse transform="matrix(-0.7071 -0.7071 0.7071 -0.7071 692.1166 358.458)" style="fill:#FFFFFF;" cx="420.297" cy="35.887" rx="9.6" ry="17.066"/>
<circle style="fill:#4EC0AA;" cx="170.667" cy="341.333" r="64"/>
<ellipse transform="matrix(-0.7071 -0.7071 0.7071 -0.7071 22.69 635.822)" style="fill:#FFFFFF;" cx="143.028" cy="313.212" rx="9.6" ry="17.067"/>
<circle style="fill:#4EC0AA;" cx="170.667" cy="64" r="64"/>
<ellipse transform="matrix(-0.7071 -0.7071 0.7071 -0.7071 218.7031 162.4191)" style="fill:#FFFFFF;" cx="142.99" cy="35.915" rx="9.6" ry="17.067"/>
<g>
	<path style="fill:#415A6B;" d="M64,180.267c-2.133,0-5.333-1.067-7.467-3.2c-4.267-4.267-4.267-10.667,0-13.867L163.2,56.533
		c4.267-4.267,10.667-4.267,13.867,0c4.267,4.267,4.267,10.667,0,13.867L70.4,177.067C69.333,179.2,67.2,180.267,64,180.267z"/>
	<path style="fill:#415A6B;" d="M341.333,180.267c-2.133,0-5.333-1.067-7.467-3.2c-4.267-4.267-4.267-10.667,0-13.867
		L440.533,56.533c4.267-4.267,10.667-4.267,13.867,0s4.267,10.667,0,13.867L347.733,177.067
		C346.667,179.2,343.467,180.267,341.333,180.267z"/>
</g>
<circle style="fill:#FFD15C;" cx="341.333" cy="170.667" r="64"/>
<circle style="fill:#F3705A;" cx="64" cy="170.667" r="64"/>
<g>
	<path style="fill:#415A6B;" d="M341.333,457.6c-2.133,0-5.333-1.067-7.467-3.2c-4.267-4.267-4.267-10.667,0-13.867l106.667-106.667
		c4.267-4.267,10.667-4.267,13.867,0c4.267,4.267,4.267,10.667,0,13.867L347.733,454.4C346.667,456.533,343.467,457.6,341.333,457.6
		z"/>
	<path style="fill:#415A6B;" d="M64,457.6c-2.133,0-5.333-1.067-7.467-3.2c-4.267-4.267-4.267-10.667,0-13.867L163.2,333.867
		c4.267-4.267,10.667-4.267,13.867,0c4.267,4.267,4.267,10.667,0,13.867L70.4,454.4C69.333,456.533,67.2,457.6,64,457.6z"/>
</g>
<circle style="fill:#FFD15C;" cx="64" cy="448" r="64"/>
<g>
	
		<ellipse transform="matrix(-0.7071 -0.7071 0.7071 -0.7071 -38.6033 269.3006)" style="fill:#FFFFFF;" cx="36.472" cy="142.645" rx="9.6" ry="17.067"/>
	
		<ellipse transform="matrix(-0.7071 -0.7071 0.7071 -0.7071 434.8359 465.3288)" style="fill:#FFFFFF;" cx="313.791" cy="142.607" rx="9.6" ry="17.067"/>
</g>
<circle style="fill:#8AD7F8;" cx="341.333" cy="448" r="64"/>
<g>
	
		<ellipse transform="matrix(-0.7071 -0.7071 0.7071 -0.7071 238.7851 938.8228)" style="fill:#FFFFFF;" cx="313.829" cy="419.957" rx="9.6" ry="17.067"/>
	
		<ellipse transform="matrix(-0.7071 -0.7071 0.7071 -0.7071 -234.6315 742.7399)" style="fill:#FFFFFF;" cx="36.511" cy="419.964" rx="9.6" ry="17.067"/>
</g>
<g>
</g>
<g>
</g>
<g>
</g>
<g>
</g>
<g>
</g>
<g>
</g>
<g>
</g>
<g>
</g>
<g>
</g>
<g>
</g>
<g>
</g>
<g>
</g>
<g>
</g>
<g>
</g>
<g>
</g>
</svg>
