<?xml version="1.0" encoding="iso-8859-1"?>
<!-- Generator: Adobe Illustrator 19.0.0, SVG Export Plug-In . SVG Version: 6.00 Build 0)  -->
<svg version="1.1" id="Capa_1" xmlns="http://www.w3.org/2000/svg" xmlns:xlink="http://www.w3.org/1999/xlink" x="0px" y="0px"
	 viewBox="0 0 512 512" style="enable-background:new 0 0 512 512;" xml:space="preserve">
<path style="fill:#B1FFFF;" d="M154,212.02l92.39,149.1l69.52-112.1L409,399.15V159.5H38v239.65L154,212.02z M251.74,186.02
	c15.602-0.005,28.254,12.638,28.26,28.24c0.006,15.602-12.638,28.254-28.24,28.26s-28.254-12.638-28.26-28.24c0-0.02,0-0.04,0-0.06
	C223.522,198.639,236.159,186.02,251.74,186.02z"/>
<g>
	<path style="fill:#304FFE;" d="M251.74,250.47c20.02,0.006,36.254-16.22,36.26-36.24s-16.22-36.254-36.24-36.26
		s-36.254,16.22-36.26,36.24c0,0.003,0,0.007,0,0.01C215.522,234.227,231.733,250.442,251.74,250.47z M251.74,193.98
		c11.184-0.006,20.254,9.056,20.26,20.24s-9.056,20.254-20.24,20.26s-20.254-9.056-20.26-20.24c0-0.007,0-0.013,0-0.02
		c0.033-11.158,9.082-20.189,20.24-20.2V193.98z"/>
	<path style="fill:#304FFE;" d="M65,56.5v65H0v334h447v-65h65v-334H65z M22.37,439.5L154,227.24l131.6,212.3L22.37,439.5z
		 M304.42,439.5l-48.61-78.38l60.1-97l108.72,175.42L304.42,439.5z M431,390.5v28.91L315.91,233.8l-69.52,112.14L154,196.87
		L16,419.45v-282h415V390.5z M496,374.5h-49v-253H81v-49h415V374.5z"/>
</g>
<g>
</g>
<g>
</g>
<g>
</g>
<g>
</g>
<g>
</g>
<g>
</g>
<g>
</g>
<g>
</g>
<g>
</g>
<g>
</g>
<g>
</g>
<g>
</g>
<g>
</g>
<g>
</g>
<g>
</g>
</svg>
